<svg xmlns="http://www.w3.org/2000/svg" xmlns:xlink="http://www.w3.org/1999/xlink" width="133.489" height="44.942" viewBox="0 0 133.489 44.942">
  <defs>
    <linearGradient id="linear-gradient" x1="-0.471" y1="-0.12" x2="0.639" y2="0.479" gradientUnits="objectBoundingBox">
      <stop offset="0" stop-color="#fff33e"/>
      <stop offset="1" stop-color="#e39725"/>
    </linearGradient>
    <linearGradient id="linear-gradient-2" x1="-0.113" y1="-0.266" x2="0.476" y2="0.38" gradientUnits="objectBoundingBox">
      <stop offset="0" stop-color="#d4d64d"/>
      <stop offset="1" stop-color="#1e8742"/>
    </linearGradient>
    <linearGradient id="linear-gradient-3" y1="7.339" x2="1" y2="7.339" gradientUnits="objectBoundingBox">
      <stop offset="0" stop-color="#134a86"/>
      <stop offset="0.14" stop-color="#134d87"/>
      <stop offset="0.32" stop-color="#14558c"/>
      <stop offset="0.52" stop-color="#1c6395"/>
      <stop offset="0.74" stop-color="#2677a2"/>
      <stop offset="0.98" stop-color="#3295b5"/>
      <stop offset="1" stop-color="#3499b8"/>
    </linearGradient>
    <linearGradient id="linear-gradient-4" x1="-93.239" y1="-192.115" x2="-94.239" y2="-192.115" xlink:href="#linear-gradient-3"/>
    <linearGradient id="linear-gradient-5" x1="0.999" y1="116.882" x2="-0.001" y2="116.882" gradientUnits="objectBoundingBox">
      <stop offset="0" stop-color="#d4d64d"/>
      <stop offset="0.12" stop-color="#b4c24a"/>
      <stop offset="0.33" stop-color="#86aa47"/>
      <stop offset="0.53" stop-color="#619a44"/>
      <stop offset="0.71" stop-color="#438f43"/>
      <stop offset="0.88" stop-color="#2a8942"/>
      <stop offset="1" stop-color="#1e8742"/>
    </linearGradient>
    <linearGradient id="linear-gradient-6" x1="0.999" y1="116.882" x2="-0.001" y2="116.882" gradientUnits="objectBoundingBox">
      <stop offset="0.01" stop-color="#fff33e"/>
      <stop offset="0.16" stop-color="#fbd937"/>
      <stop offset="0.41" stop-color="#f0bc2d"/>
      <stop offset="0.64" stop-color="#e9a828"/>
      <stop offset="0.84" stop-color="#e59c26"/>
      <stop offset="1" stop-color="#e39725"/>
    </linearGradient>
  </defs>
  <g id="logo-dtp" transform="translate(0 0)">
    <g id="Grupo_43" data-name="Grupo 43">
      <path id="Caminho_82" data-name="Caminho 82" d="M27.731,223.968,0,202l27.511-6.955Z" transform="translate(0 -179.026)" fill="url(#linear-gradient)"/>
      <path id="Caminho_83" data-name="Caminho 83" d="M33.5,217.474,10.3,183.448l33.013,1.761Z" transform="translate(-5.766 -172.532)" fill="url(#linear-gradient-2)"/>
      <path id="Caminho_84" data-name="Caminho 84" d="M44.47,203.59,29.9,158.648l35.742,12.589Z" transform="translate(-16.739 -158.648)" fill="url(#linear-gradient-3)"/>
    </g>
    <g id="Grupo_42" data-name="Grupo 42" transform="translate(45.674 22.771)">
      <rect id="Retângulo_60" data-name="Retângulo 60" width="2.685" height="7.923" transform="translate(25.53 3.786)" fill="#035d93"/>
      <rect id="Retângulo_61" data-name="Retângulo 61" width="9.948" height="2.641" transform="translate(21.877 0)" fill="#035d93"/>
      <rect id="Retângulo_62" data-name="Retângulo 62" width="10.08" height="2.641" transform="translate(65.806 0.044)" fill="url(#linear-gradient-4)"/>
      <rect id="Retângulo_63" data-name="Retângulo 63" width="10.08" height="2.641" transform="translate(65.806 4.534)" fill="url(#linear-gradient-5)"/>
      <rect id="Retângulo_64" data-name="Retângulo 64" width="10.08" height="2.641" transform="translate(65.806 9.068)" fill="url(#linear-gradient-6)"/>
      <path id="Caminho_85" data-name="Caminho 85" d="M287.438,210.38l-4.534,7.131V210.38h-2.641v11.709h2.861l7.263-11.709Z" transform="translate(-202.572 -210.38)" fill="#035d93"/>
      <path id="Caminho_86" data-name="Caminho 86" d="M138.2,210.38H135.16l-3.7,11.709h2.817l.66-2.641h3.477l.66,2.641H141.9Zm-2.553,6.647,1.056-4.182,1.056,4.182Z" transform="translate(-119.27 -210.38)" fill="#035d93"/>
      <path id="Caminho_87" data-name="Caminho 87" d="M174.363,222.089h2.817l.616-2.641h3.477l.66,2.641h2.817l-3.7-11.709h-2.993Zm4.138-5.062,1.056-4.182,1.056,4.182Z" transform="translate(-143.287 -210.38)" fill="#035d93"/>
      <path id="Caminho_88" data-name="Caminho 88" d="M109.881,210.38h-6.118v2.641h6.118a3.269,3.269,0,0,1,3.565,3.213,3.307,3.307,0,0,1-3.609,3.213h-1.188v-5.282h-2.641v7.923h3.83a5.861,5.861,0,1,0,.044-11.709Z" transform="translate(-103.763 -210.38)" fill="#035d93" fill-rule="evenodd"/>
      <path id="Caminho_89" data-name="Caminho 89" d="M207.129,210.38h-5.766v11.709h2.685v-9.024h3.081a1.629,1.629,0,1,1,.044,3.257h-1.981v2.641h1.981a4.248,4.248,0,0,0,4.27-4.226v-.044A4.349,4.349,0,0,0,207.129,210.38Z" transform="translate(-158.402 -210.38)" fill="#035d93"/>
      <path id="Caminho_90" data-name="Caminho 90" d="M237,214.65a4.274,4.274,0,0,0-4.27-4.27h-5.766v11.709h2.685v-9.024h3.081a1.629,1.629,0,1,1,.044,3.257h-1.981v2.641h0l2.421,3.169h3.3l-2.861-3.257A4.349,4.349,0,0,0,237,214.65Z" transform="translate(-172.733 -210.38)" fill="#035d93"/>
    </g>
  </g>
</svg>
